@startuml classes
set namespaceSeparator none
class "Database" as database.db.Database #aliceblue {
  connection
  cursor
  database_path : str
  get_all_item_ids()
  get_all_user_information()
  }

class SaleRetrieve{
  sale_id: int
  username: str
  get_cost_by_sale_id(sale_id: int)
  get_email_by_username(username: str)
  get_first_name_by_username(username: str)
  get_full_sale_by_id(sale_id: int)
  get_full_sales_information()
  get_sale_date_by_sale_id(sale_id: int)
  get_sales_by_cost_range(start_cost: float, end_cost: float)
  get_sales_by_date_range(start_date: dt.date, end_date: dt.date)
  get_sales_by_item_id(item_id: int)
  get_sales_by_quantity_range(start_quantity: int, end_quantity: int)
  get_sales_by_transaction_id(transaction_id: int)
  get_sales_by_username(username: str)
  }

  class ItemRetrieve{
  item_id: int
  sale_id: int
  get_full_inventory()
  get_item_category_by_id(item_id: int)
  get_item_id_by_sale_id(sale_id: int)
  get_item_image_url_by_id(item_id: int)
  get_item_info_by_id(item_id: int)
  get_item_name_by_id(item_id: int)
  get_item_price_by_id(item_id: int)
  get_item_stock_by_id(item_id: int)
  }
  class RetrieveUser{
  username: str
  sale_id: int
  get_last_name_by_username(username: str)
  get_password_hash_by_username(username: str)
  get_quantity_by_sale_id(sale_id: int)
  get_transaction_id_by_sale_id(sale_id: int)
  get_username_by_sale_id(sale_id: int)
  }

  class New_Database{
    itemName: str
    info: str
    database_path: str
  }

  class NewItem{
  itemName: str
  price: int
  info: str
  insert_new_item(item_name: str, price: int, info: str) -> None
  }

class NewSale{
  username: str
  itemName: str
  transaction_id: int
  item_id: int
  quantity: int 
  sale_date: date
  cost: float
  insert_new_sale(transaction_id: int, username: str, item_id: int, quantity: int, sale_date: dt.date, cost: float)
  }

class NewUser{
  username: str
  passward_hash: str
  email: str
  first_name: str
  last_name: str
  insert_user(username: str, password_hash: str, email: str, first_name: str, last_name: str) -> None
}

class setItem{
  image_url: str
  stock: int
  email: str
  item_id: int
  new_category: str
  new_last_name: str
  set_email(username: str, new_email: str)
  set_first_name(username: str, new_first_name: str)
  set_item_category(item_id: int, new_category: str)
  set_item_image_url(item_id: int, new_image_url: str)
  set_item_info(item_id: int, new_info: str)
  set_item_name(item_id: int, new_name: str)
  set_item_price(item_id: int, new_price: float)
  set_item_stock(item_id: int, new_stock: int)
  set_last_name(username: str, new_last_name: str)
  set_password_hash(username: str, new_password_hash: str)
  set_sale_cost(sale_id: int, discount: float, tax: float)
  set_sale_date(sale_id: int, new_sale_date: dt.date)
  set_sale_item_id(sale_id: int, new_item_id: int)
  set_sale_quantity(sale_id: int, new_quantity: int)
  set_sale_transaction_id(sale_id: int, new_transaction_id: int)
  set_sale_username(sale_id: int, new_username: str)
}

SaleRetrieve "1" - "n" ItemRetrieve
SaleRetrieve "1" -- "n" RetrieveUser
Database "1" -- "n" SaleRetriever
New_Database "1" - "n" NewItem
New_Database "1" -- "n" NewSale
New_Database "1" -- "n" NewUser
NewItem "1" -- "1" setItem

@enduml